<svg xmlns="http://www.w3.org/2000/svg" xml:space="preserve" viewBox="259.43 453.73 274.83 269.17"><metadata xmlns:fl="https://football-logos.cc/brazil/mirassol">dl1_2910e2a92df981b6f56ec3cf1d5cdbeb073682aabffd81c199f9bfa67ea40c65</metadata><!-- Source: https://football-logos.cc --><path d="M297.584 501.593c45.391 0 82.188-36.796 82.188-82.187s-36.797-82.188-82.188-82.188c-45.39 0-82.187 36.797-82.187 82.188 0 45.39 36.796 82.187 82.187 82.187" style="fill:#256c38;fill-opacity:1;fill-rule:evenodd;stroke:none" transform="matrix(1.33333 0 0 -1.33333 0 1122.52)" data-source="https://football-logos.cc"></path><path d="M297.584 498.026c43.421 0 78.62-35.2 78.62-78.62s-35.199-78.62-78.62-78.62c-43.42 0-78.62 35.2-78.62 78.62s35.2 78.62 78.62 78.62" style="fill:#eeed05;fill-opacity:1;fill-rule:evenodd;stroke:none" transform="matrix(1.33333 0 0 -1.33333 0 1122.52)"></path><path d="M297.584 493.635c40.996 0 74.229-33.234 74.229-74.229 0-40.996-33.233-74.229-74.229-74.229-40.995 0-74.228 33.233-74.228 74.229 0 40.995 33.233 74.229 74.228 74.229" style="fill:#256c38;fill-opacity:1;fill-rule:evenodd;stroke:none" transform="matrix(1.33333 0 0 -1.33333 0 1122.52)"></path><path d="M297.584 491.596c39.87 0 72.19-32.321 72.19-72.19s-32.32-72.19-72.19-72.19-72.19 32.32-72.19 72.19 32.321 72.19 72.19 72.19" style="fill:#fff;fill-opacity:1;fill-rule:evenodd;stroke:none" transform="matrix(1.33333 0 0 -1.33333 0 1122.52)"></path><path d="M297.584 489.243c38.57 0 69.837-31.267 69.837-69.837s-31.267-69.837-69.837-69.837-69.837 31.267-69.837 69.837 31.268 69.837 69.837 69.837" style="fill:#eeed05;fill-opacity:1;fill-rule:evenodd;stroke:none" transform="matrix(1.33333 0 0 -1.33333 0 1122.52)"></path><path d="M297.584 483.44a63.9 63.9 0 0 0 21.182-3.591v-12.817a51.9 51.9 0 0 1-22.163 4.478v-45.195h13.572v-13.489h-13.572V355.38c-4.06.06-8.03.5-11.874 1.284v12.23l.007-.003V482.15a64.3 64.3 0 0 0 12.848 1.29m25.691-5.367a64.3 64.3 0 0 0 30.063-27.155l-9.789-6.938a52.3 52.3 0 0 1-8.4 11.544v-72.236a52.2 52.2 0 0 1 10.124 15.074l9.501-7.784c-6.737-13.337-17.814-23.91-31.587-29.872-.676 39 .106 78.342.088 117.367m-43.14-120.294c-3.928 1.25-7.888 2.86-11.868 4.685-.304 25.09 0 50.334 0 75.439l-7.184-17.392-6.274.157-6.645 15.312a52 52 0 0 1-2.693-16.574c0-13.985 5.51-26.683 14.476-36.043v-15.765c-15.997 11.64-26.397 30.509-26.397 51.808 0 16.404 6.171 31.366 16.316 42.695l8.613-18.06 10.185 32.509a63.6 63.6 0 0 0 11.517 4.495v-12.506l-.047-.017V370.29z" style="fill:#256c38;fill-opacity:1;fill-rule:evenodd;stroke:none" transform="matrix(1.33333 0 0 -1.33333 0 1122.52)"></path><path d="M339.103 350.88c16.364 11.836 28.671 26.013 36.793 44.627.485 1.114 1.331 4.98 2.995 4.634 2.096-.11 1.89-4.36 1.93-5.575l.63-18.57 14.876 8.003c.936.504 3.2 1.81 4.022 1.138s-.035-3.129-.343-4.146c-4.134-13.674-10.905-25.026-19.82-36.128q1.59-1.982 3.175-3.969c.03-.037.055-.07.083-.11 1.801-2.527 1.405-5.454-.707-7.66l-.062-.064c-6.423-6.264-13.491-11.801-21.175-16.438-21.944-13.242-46.624-17.807-72.012-16.758l-.05.003c-29.266 1.788-57.69 11.281-77.965 33.225-2.357 2.55-2.764 5.098-.35 7.798l3.775 4.223c-8.816 11.023-15.516 22.307-19.62 35.878-.307 1.018-1.302 3.258-.186 4.068 1.117.947 2.93-.556 3.865-1.06 5.048-2.99 9.987-5.587 14.877-8.003l.63 18.57c.158 4.195.422 5.112 1.616 5.34 1.991.545 2.658-2.853 3.31-4.399 8.12-18.613 20.428-32.79 36.792-44.627 26.174-14.525 38.987-11.175 49.072-11.104 16.245.115 23.81 6.822 33.849 11.104" style="fill:#256c38;fill-opacity:1;fill-rule:evenodd;stroke:none" transform="matrix(1.33333 0 0 -1.33333 0 1122.52)" data-source="https://football-logos.cc"></path><path d="M197.74 381.735c3.091-10.225 7.751-20.133 19.006-34.125 8.233 8.425 10.382 13.207 13.441 13.997 5.732 1.48 17.979-13.232 24.488-12.81-15.466 11.187-28.775 25.36-37.642 45.682l-.666-19.645c-.124-1.452-1.445-2.182-3.176-1.412zm199.805 0c-3.091-10.225-7.278-20.226-18.532-34.219-4.638 3.004-9.45 13.21-14.852 14.076-6.319 1.014-17.165-13.21-23.551-12.795 15.898 11.125 29.076 25.317 37.642 45.682l.666-19.645c.123-1.452 1.444-2.182 3.176-1.412z" style="fill:#eeed05;fill-opacity:1;fill-rule:evenodd;stroke:none" transform="matrix(1.33333 0 0 -1.33333 0 1122.52)"></path><path d="M258.187 346.074c-1.647-1.804-3.216-3.176-4.862-4.98-8.58 4.76-15.681 9.37-21.96 14.548-1.477 1.112-1.774 2.262-1.257 3.024.968 1.427 2.926.01 4.395-.75l11.45-7.764c4.53-2.868 8.645-4.347 12.234-4.078m79.051-.196c1.647-1.804 3.215-3.176 4.862-4.98 8.58 4.759 15.681 9.37 21.959 14.548 1.478 1.112 1.775 2.261 1.258 3.024-.968 1.427-2.926.01-4.395-.75l-11.45-7.764c-4.53-2.868-8.645-4.347-12.234-4.078" style="fill:#eeed05;fill-opacity:1;fill-rule:evenodd;stroke:none" transform="matrix(1.33333 0 0 -1.33333 0 1122.52)"></path><path d="m227.797 355.682-14.758-16.506c-1.394-1.56-1.268-2.619.323-4.34 19.144-20.719 46.31-30.575 76.233-32.403 37.905-1.567 68.019 9.776 91.285 32.467 1.344 1.405 1.486 2.968.47 4.392-4.522 5.673-8.868 11.037-13.39 16.71-8.74-9.588-21.17-16.401-34.144-21.378-12.831-4.924-24.743-7.764-36.573-7.73-13.746.038-27.362 3.812-41.86 10.445-10.13 4.634-19.6 10.539-27.586 18.343" style="fill:#eeed05;fill-opacity:1;fill-rule:evenodd;stroke:none" transform="matrix(1.33333 0 0 -1.33333 0 1122.52)"></path><path d="m258.917 346.864-5.592-5.77q8.56-4.561 17.553-7.4c17.126-5.405 30.628-5.696 47.917-1.268 7.822 2.003 15.59 4.862 23.305 8.472l-5.84 5.97c-4.662-2.422-9.683-4.389-15.077-6.068-15.95-4.963-32.29-4.807-48.138.172-4.835 1.52-9.554 3.452-14.128 5.892" style="fill:#fff;fill-opacity:1;fill-rule:evenodd;stroke:none" transform="matrix(1.33333 0 0 -1.33333 0 1122.52)"></path><path d="m270.632 336.822.746-.147q-.045-.382.102-.612.148-.231.485-.333.357-.108.584-.011a.47.47 0 0 1 .289.3.35.35 0 0 1-.009.245.63.63 0 0 1-.218.239q-.117.085-.543.34-.55.327-.724.617-.246.406-.113.844a1 1 0 0 0 .317.479q.234.198.57.235a1.9 1.9 0 0 0 .761-.09q.69-.207.946-.62.255-.41.119-.929l-.753.2q.04.3-.079.47-.117.171-.429.266-.321.097-.542.018a.28.28 0 0 1-.187-.194.3.3 0 0 1 .043-.256q.104-.162.606-.453t.718-.506q.22-.215.293-.497.075-.28-.03-.63a1.13 1.13 0 0 0-.975-.798q-.362-.038-.84.107-.699.21-.974.645-.276.435-.163 1.071m6.597-3.2-.807.222-.088.931-1.485.41-.54-.759-.793.219 2.457 3.307.792-.218zm-.966 1.846-.137 1.512-.878-1.232zm-.312 2.846-.326.09q.013.06.022.09.074.267.242.373a.44.44 0 0 0 .37.052.7.7 0 0 0 .16-.064q.07-.04.246-.185a.9.9 0 0 1 .291-.177.2.2 0 0 1 .148.014q.07.036.117.152l.326-.09q-.097-.344-.262-.458a.42.42 0 0 0-.363-.06 1 1 0 0 0-.163.065q-.054.032-.26.188a1.1 1.1 0 0 1-.313.184.17.17 0 0 1-.14-.015q-.06-.036-.095-.16m1.925-2.897q.125.574.38.928.19.26.461.44.27.18.558.235.384.073.843-.027.83-.18 1.218-.802.386-.624.188-1.543-.197-.911-.802-1.318-.606-.409-1.433-.23-.839.18-1.223.8-.384.618-.19 1.517m.787-.143q-.138-.638.086-1.032a.99.99 0 0 1 .679-.491.98.98 0 0 1 .816.166q.362.264.503.918.14.647-.076 1.026-.214.379-.685.48-.47.102-.826-.158-.357-.26-.497-.909m4.52-2.87.611 3.791 1.228-.198q.697-.112.9-.203.311-.138.485-.46.174-.321.1-.773a1.26 1.26 0 0 0-.22-.567 1.06 1.06 0 0 0-.382-.323 1.1 1.1 0 0 0-.425-.115 4.4 4.4 0 0 0-.801.073l-.498.08-.23-1.43zm1.275 3.026-.174-1.08.418-.067q.45-.073.612-.037a.5.5 0 0 1 .269.148.52.52 0 0 1 .134.282.5.5 0 0 1-.066.362.54.54 0 0 1-.28.219q-.132.047-.545.114zm5.306-3.895-.833.088-.238.904-1.532.162-.41-.836-.817.086 1.886 3.663.818-.086zm-1.253 1.664-.382 1.47-.665-1.36zm1.948 2.134.776-.057-.153-2.076a4.4 4.4 0 0 1-.019-.642.63.63 0 0 1 .206-.396q.175-.156.496-.18.326-.023.501.099a.53.53 0 0 1 .223.316q.048.194.082.648l.157 2.12.775-.057-.148-2.014q-.051-.69-.134-.97a1.1 1.1 0 0 0-.267-.465 1.16 1.16 0 0 0-.472-.279q-.29-.095-.743-.063-.546.04-.82.188-.273.149-.422.363-.149.215-.185.441-.05.335-.004.979zm3.605-4.076.075 3.808.777-.015-.061-3.159 1.925-.038-.012-.649zm3.03 1.81q-.02.588.142.993.12.299.34.54.217.24.483.363.354.165.823.18.85.03 1.378-.48t.56-1.45q.03-.93-.456-1.474-.488-.544-1.334-.573-.857-.03-1.38.477-.525.505-.556 1.425m.798.054q.022-.653.336-.98a.99.99 0 0 1 .777-.31q.465.015.752.36.285.345.263 1.014-.023.66-.324.975-.3.315-.782.3a.99.99 0 0 1-.762-.356q-.282-.34-.26-1.003m4.927-.679-.048.734 1.445.094.048-.733zm2.968 3.093 1.526.18q.454.055.68.043.227-.011.417-.11a1 1 0 0 0 .33-.282.87.87 0 0 0 .17-.432.9.9 0 0 0-.085-.508.9.9 0 0 0-.35-.38q.358-.061.575-.284a.93.93 0 0 0 .254-.554q.03-.261-.06-.522a1.03 1.03 0 0 0-.285-.433 1.1 1.1 0 0 0-.495-.242 13 13 0 0 0-.926-.136l-1.298-.154zm.848-.542.104-.88.505.06q.449.054.556.08.195.045.295.173a.4.4 0 0 1 .078.31.42.42 0 0 1-.132.275.44.44 0 0 1-.305.099q-.117 0-.66-.065zm.18-1.513.12-1.023.714.085q.416.05.526.085.169.053.261.186.094.135.07.338a.5.5 0 0 1-.118.282.47.47 0 0 1-.261.146q-.165.036-.69-.025zm3.266-1.255-.658 3.784 1.61.28q.606.104.9.05a.88.88 0 0 0 .503-.286q.21-.233.269-.567.075-.427-.127-.747-.202-.321-.686-.48.273-.101.462-.246a4.4 4.4 0 0 0 .54-.54l.59-.658-.914-.158-.69.73q-.372.39-.501.486a.6.6 0 0 1-.258.117 1.3 1.3 0 0 1-.394-.025l-.154-.027.274-1.58zm.387 2.315.565.098q.55.096.678.167a.4.4 0 0 1 .187.197.5.5 0 0 1 .028.298.46.46 0 0 1-.156.291.47.47 0 0 1-.313.098 6 6 0 0 1-.56-.083l-.596-.104zm6.803-.88-.817-.185-.516.78-1.503-.34-.119-.922-.802-.181.61 4.074.801.181zm-1.722 1.172-.833 1.27-.193-1.501zm1.62.087.716.258q.159-.35.403-.472t.587-.036q.361.091.506.291a.47.47 0 0 1 .094.406.36.36 0 0 1-.135.206.63.63 0 0 1-.31.092 9 9 0 0 1-.64.012q-.64-.002-.938.156-.42.222-.532.665a1 1 0 0 0 .026.575q.099.289.368.495.27.206.698.315.698.176 1.13-.045t.58-.735l-.747-.217q-.121.277-.31.363-.19.086-.505.007-.325-.082-.475-.264a.28.28 0 0 1-.06-.262.3.3 0 0 1 .17-.198q.171-.085.752-.076.58.008.876-.064.298-.073.507-.275.208-.202.298-.556a1.13 1.13 0 0 0-.425-1.186q-.29-.22-.776-.341-.705-.18-1.166.052-.46.23-.691.834zm3.933-.24-1.048 3.696.749.212 1.048-3.695zm1.475.438-1.117 3.641.744.228.926-3.02 1.842.564.19-.62zm-81.333-12.821 5.02 10.917 4.861-2.235-.972-7.81 5.278 5.83 4.865-2.237-5.02-10.917-3.648 1.677 2.816 6.126-4.79-5.218-2.805 1.29.834 7.036-2.816-6.125zm18.106-7.488 3.38 11.532 4.243-1.244-3.379-11.531zm8.208-2.36 2.131 11.826 6.484-1.17q1.362-.246 2.262-.542t1.45-.68a3.4 3.4 0 0 0 .887-.89 3 3 0 0 0 .458-1.019q.12-.52-.01-1.236-.16-.89-.584-1.434a2.7 2.7 0 0 0-1.07-.836q-.453-.203-1.1-.238 1.2-.661 1.564-1.27.364-.61.174-1.86l-.271-1.88q-.055-.412.004-.497c.05-.084.151-.142.309-.182l-.066-.367-4.408.794q-.1.515.083 1.677l.128.876q.1.606-.044.973a1.3 1.3 0 0 1-.527.612q-.383.244-1.215.394l-1.692.305-.742-4.114zm5.414 5.949 2.076-.374c.67-.121 1.164-.104 1.472.053q.469.238.563.758.096.536-.243.908-.339.368-1.326.546l-2.132.384zm9.54-8.439 5.367 11.783 4.494-.207 4.268-12.225-4.4.202-.44 1.597-4.4.202-.573-1.55zm7.4 8.076-1.58-4.297 2.813-.129zm20.538.677-4.19-.304q-.187.51-.619.738-.43.232-1.199.177-.752-.057-1.131-.357-.28-.227-.256-.557a.55.55 0 0 1 .255-.44q.332-.226 1.53-.394l1.741-.249q2.42-.339 3.446-1.213 1.027-.87 1.117-2.11a3.4 3.4 0 0 0-.366-1.84 3.95 3.95 0 0 0-1.126-1.374q-.686-.523-1.819-.882a10.4 10.4 0 0 0-2.397-.452 10.3 10.3 0 0 0-2.64.132q-1.243.235-2.082.78-.835.546-1.3 1.308-.33.541-.5 1.361l4.237.307q.189-.562.703-.83c.34-.18.854-.245 1.531-.196q.892.064 1.262.355.272.22.248.576a.73.73 0 0 1-.308.567q-.28.202-1.484.375l-1.565.226q-1.223.168-2.314.547-1.087.377-1.676 1.058-.592.68-.664 1.704-.073 1.006.351 1.827.427.817 1.203 1.357a5.7 5.7 0 0 0 1.758.808q.98.27 2.039.345c.838.061 1.616.04 2.323-.058q1.064-.153 1.713-.474a3.8 3.8 0 0 0 1.07-.77q.423-.447.678-.923.252-.476.43-1.125m14.016 2.337-4.132-.753q-.242.486-.695.666-.454.185-1.212.047c-.493-.09-.857-.252-1.086-.478q-.255-.256-.194-.58a.55.55 0 0 1 .3-.411c.236-.124.76-.201 1.563-.227l1.759-.059q2.441-.075 3.557-.834 1.114-.754 1.338-1.977a3.4 3.4 0 0 0-.166-1.87 3.94 3.94 0 0 0-.97-1.486q-.626-.594-1.713-1.074a10.4 10.4 0 0 0-2.335-.707 10.3 10.3 0 0 0-2.638-.154q-1.263.099-2.155.55-.889.454-1.433 1.16-.386.503-.644 1.3l4.179.762q.247-.538.788-.75c.358-.141.876-.15 1.543-.029q.88.16 1.217.49a.65.65 0 0 1 .184.599.73.73 0 0 1-.368.53q-.3.17-1.515.213l-1.58.056a12 12 0 0 0-2.36.294q-1.121.257-1.78.87-.661.613-.844 1.623-.182.993.152 1.855a3.75 3.75 0 0 0 1.05 1.478 5.7 5.7 0 0 0 1.66.993q.945.374 1.99.564c.826.15 1.601.214 2.315.192q1.076-.036 1.754-.287a3.8 3.8 0 0 0 1.147-.65q.47-.397.773-.844.303-.445.55-1.072m11.677-5.803q-3.086-.972-5.45.1-2.364 1.078-3.227 3.817-.412 1.312-.318 2.488.1 1.177.596 2.12c.33.629.719 1.151 1.155 1.57q.66.63 1.51 1.128c.572.33 1.188.602 1.856.812q1.907.6 3.728.395 1.827-.208 3.098-1.294 1.275-1.089 1.829-2.85.542-1.723.23-3.327-.313-1.606-1.566-2.938-1.251-1.331-3.44-2.02m-.942 2.812q.716.226 1.208.737.491.509.613 1.37.12.855-.22 1.93a5.3 5.3 0 0 1-.606 1.324q-.365.55-.773.83-.411.278-.98.375a2.5 2.5 0 0 1-1.194-.097 2.73 2.73 0 0 1-1.194-.759q-.5-.539-.631-1.384-.128-.84.21-1.916.51-1.612 1.618-2.262.866-.49 1.949-.148m10.953 1.262-5.427 10.721 3.931 1.99 4.01-7.922 5.422 2.745 1.418-2.8z" style="fill:#256c38;fill-opacity:1;fill-rule:nonzero;stroke:none" transform="matrix(1.33333 0 0 -1.33333 0 1122.52)" data-source="https://football-logos.cc"></path><!-- source: https://football-logos.cc --></svg>