<svg xmlns="http://www.w3.org/2000/svg" xml:space="preserve" viewBox="0 0 925.15 1157.35"><metadata xmlns:fl="https://football-logos.cc/azerbaijan/sabah">dl1_567fbda8df21d01029291d5f66894423b6bca93f2312ecdc472e9d6c222b8dbe</metadata><!-- Source: https://football-logos.cc --><path d="M6938.59 6749.9V3845.15c0-46.89-38.2-83.32-83.07-83.32-5.42 0-10.96.63-16.38 1.64l-60 12.1c-4.66.88-9.2 1.26-13.61 1.26-4.92 0-9.7-.5-14.24-1.64l-1.39-4.28c-2.27.63-4.41 1.39-6.8 2.02-26.6-9.21-46.26-34.29-46.26-64.92V2390.12c0-50.79-24.33-98.56-65.67-128.31L3528.66 20.04C3510.26 6.808 3488.45 0 3466.9 0c-21.68 0-43.23 6.68-61.64 20.04L263.805 2285.13c-13.864 9.96-22.059 26.09-22.059 43.11v1402.84c0 30-24.703 52.94-53.062 52.94-4.411 0-8.95-.63-13.614-1.77l-108.394-28.99c-4.664-1.13-9.074-1.76-13.614-1.76-7.812 0-15.375 1.76-22.054 5.04-9.707 4.29-17.899 11.72-23.57 20.92C2.772 3785.4 0 3794.61 0 3804.56v2988.7c0 29.24 23.695 52.94 53.063 52.94h158.183v.63h7.688c25.711 3.65 45.375 25.71 45.375 52.43v1388.72c0 24.2 16.261 45.38 39.828 51.56C1282.98 8594.64 2311.6 8680.1 3250.23 8680.1c1719.08 0 3136.67-286.62 3394.17-341.83 24.58-5.29 41.98-26.97 41.98-51.92V6883.13c0-13.99 5.42-26.72 14.37-36.3h.12v-.13c9.71-10.34 23.32-16.64 38.44-16.64h118.99c44.36 0 80.29-35.92 80.29-80.16" style="fill:#161514;fill-opacity:1;fill-rule:nonzero;stroke:none" transform="matrix(.13333 0 0 -.13333 0 1157.347)" data-source="https://football-logos.cc"></path><path d="M4295.31 3040.41c0-196.95-157.63-356.68-351.84-356.68-103.47 0-196.63 45.29-260.94 117.34l60.6 49.48c37.71-41.42 91.87-67.53 151.99-67.53 114.11 0 206.78 93.96 206.78 209.69 0 44.8-13.86 86.23-37.39 120.23l117.18 95.9 47.87 39.01c9.99-13.86 18.85-28.69 26.75-44.17 24.98-48.83 39-104.44 39-163.27M3400.95 2685.51c-105.89-163.6-288.34-271.58-495.77-271.58-327.19 0-592.32 268.84-592.32 600.37 0 93.48 21.12 181.97 58.51 260.78-161.66 100.1-272.39 276.58-283.19 479.82l393.59-320.74 145.54-118.46c-26.91-35.3-48.19-74.62-63.18-116.69-16.6-46.1-25.62-95.41-25.62-146.83 0-248.37 209.2-449.68 467.4-449.68 130.23 0 247.89 51.26 332.67 133.78z" style="fill:#e055a0;fill-opacity:1;fill-rule:nonzero;stroke:none" transform="matrix(.13333 0 0 -.13333 0 1157.347)"></path><path d="M4256.31 3203.68c-25.3.17-50.13 1.78-74.62 5.16l47.87 39.01c9.99-13.86 18.85-28.69 26.75-44.17M3263.79 2797.2c-64.47-79.14-162.14-129.58-271.25-129.58-194.38 0-352.01 159.72-352.01 356.68 0 58.83 14.18 114.43 39.17 163.27 9.99 19.98 22.08 38.84 35.62 56.41l59.79-48.68 88-71.72c-28.36-35.94-45.29-81.39-45.29-130.87 0-115.73 92.68-209.69 206.95-209.69 64.96 0 122.98 30.46 160.69 78.01z" style="fill:#e055a0;fill-opacity:1;fill-rule:nonzero;stroke:none" transform="matrix(.13333 0 0 -.13333 0 1157.347)"></path><path d="M4295.31 3040.41c0-196.95-157.63-356.68-351.84-356.68-103.47 0-196.63 45.29-260.94 117.34l60.6 49.48c37.71-41.42 91.87-67.53 151.99-67.53 114.11 0 206.78 93.96 206.78 209.69 0 44.8-13.86 86.23-37.39 120.23l117.18 95.9 47.87 39.01c9.99-13.86 18.85-28.69 26.75-44.17 24.98-48.83 39-104.44 39-163.27" style="fill:#e055a0;fill-opacity:1;fill-rule:nonzero;stroke:none" transform="matrix(.13333 0 0 -.13333 0 1157.347)"></path><path d="M4561.09 3287.5c41.26-81.88 64.63-174.72 64.63-273.2 0-331.53-265.13-600.37-592.31-600.37-206.63 0-388.6 107.34-494.49 269.8l65.11 53.19c.81-.96 1.62-1.77 2.58-2.74 182.61-182.61 472.89-188.09 648.57-12.57 130.07 130.23 160.69 323.32 93.32 488.84-12.89 32.4-29.81 63.67-50.45 93.32l159.08 130.07 392.14 320.1c-16.11-198.57-127.65-369.9-288.18-466.44" style="fill:#e055a0;fill-opacity:1;fill-rule:nonzero;stroke:none" transform="matrix(.13333 0 0 -.13333 0 1157.347)" data-source="https://football-logos.cc"></path><path d="M4295.31 3040.41c0-196.95-157.63-356.68-351.84-356.68-103.47 0-196.63 45.29-260.94 117.34l60.6 49.48c37.71-41.42 91.87-67.53 151.99-67.53 114.11 0 206.78 93.96 206.78 209.69 0 44.8-13.86 86.23-37.39 120.23l117.18 95.9 47.87 39.01c9.99-13.86 18.85-28.69 26.75-44.17 24.98-48.83 39-104.44 39-163.27M3468.84 2046.8l-197.89 197.89 197.89 197.9 197.89-197.9zM1063.76 4331.91l-257.885-16.12s-354.586-48.35-338.469 306.23l-.48 249.83h8.539l338.469 32.23v-269.81l370.706 44.17-8.06 346.52-709.174 483.53v553.79s24.18 314.3 358.617 315.42c298.977.97 294.787.17 290.437 0 20.79.65 382.95 6.13 398.59-369.57V5798.6h-338.47v241.77H821.992v-354.59l693.058-474.98v-524.31s16.11-322.35-451.29-354.58M6463.12 6370.29V4251.32l-338.47 48.35-16.12 870.35-354.58 21.28v-843.27l-338.47 32.23-9.19 1990.03h349.75l-2.09-829.57 370.7-32.23-4.51 861.8zM6588.69 3943.21h-.12v-.25h.25zM6751.29 3775.19l-1.39-4.28c-2.27.63-4.41 1.39-6.8 2.02 2.52 1 5.29 1.76 8.19 2.26M4474.54 4227.15 3469.29 3406.6l-1011.37 820.55 664.85 48.35 350.55-358.62 338.47 358.62zM218.934 6846.83c-2.52-.38-5.043-.63-7.688-.63v.63z" style="fill:#e055a0;fill-opacity:1;fill-rule:nonzero;stroke:none" transform="matrix(.13333 0 0 -.13333 0 1157.347)"></path><path d="M6712.97 3914.85c-36.17 8.95-77.89 18.53-124.02 28.11h-.38c-534.17 111.92-1662.74 254.73-1717.7 261.66-17.26 2.01-34.53-2.77-48.02-13.36L3463.49 3117.89l-1344.23 1071.1a62.7 62.7 0 0 1-32.01 13.49c-195.49 24.7-1170.801-148.48-1726.898-252.09h-.125l-28.864-5.42c-10.84-2.14-21.3-4.03-31.636-6.05l-15.375-2.9c-10.211-1.89-20.293-3.78-30-5.54l-14.747-2.78c-4.664-1-9.453-1.76-13.992-2.64v2695.9c17.899.88 35.293 3.53 52.059 7.69H6626.25a273.8 273.8 0 0 1 86.72-22.94zm-241.75-1490.32L3466.9 253.719 467.363 2416.47v1314.61c0 36.68-7.058 71.72-20.043 103.98 589.5 108.78 1412.17 250.07 1607.03 240.87l1368.69-1090.64a64.1 64.1 0 0 1 40.33-14.24c13.99 0 28.11 4.79 39.83 13.86l1378.26 1088.37c170.79-21.93 1084.97-133.73 1589.76-232.92zm-3707.13 5751.4 435.22 16.14 133.61-1068.58c-68.32-5.55-134.74-15.13-198.77-28.99zm-640.29-1329.1h-694.62l-647.469 281.45v709.23zm-568.45 1216.3 548.03 64.41 746.42-1127.32c-77.14-35.8-147.6-78.27-209.73-125.92zm4593.46-225.62v-693.1l-625.54-297.58h-715.54Zm-2371.98-742.38c-57.85 12.35-117.85 21.43-179.35 27.1l133.73 1069.84 443.29-25.59zm1034.3 1032.41 580.17-64.41-1140.8-1171.05c-56.72 41.08-119.87 77.64-188.18 109.27zM489.922 6899.26v1254.49c817.628 199.52 1745.428 300.73 2760.308 300.73 1495.11 0 2756.15-219.05 3210.53-308.8V6883.13c0-12.23.76-24.46 2.4-36.3h-238.22v1135.76c-3050.71 612.43-5507.764 0-5507.764 0L702.43 6846.83H485.008c3.152 17.01 4.914 34.53 4.914 52.43m6368.378-69.2h-118.99c-15.12 0-28.73 6.3-38.44 16.64-.12 0-.12 0-.12.13-8.95 9.58-14.37 22.31-14.37 36.3v1403.22c0 24.95-17.4 46.63-41.98 51.92-257.5 55.21-1675.09 341.83-3394.17 341.83-938.63 0-1967.25-85.46-2946.093-340.56-23.567-6.18-39.828-27.36-39.828-51.56V6899.26c0-26.72-19.664-48.78-45.375-52.43-2.52-.38-5.043-.63-7.688-.63H53.063C23.695 6846.2 0 6822.5 0 6793.26v-2988.7c0-9.95 2.773-19.16 7.438-27.1 5.671-9.2 13.863-16.63 23.57-20.92 6.68-3.28 14.242-5.04 22.055-5.04 4.539 0 8.949.63 13.613 1.76l108.394 28.99c4.664 1.14 9.203 1.77 13.614 1.77 28.359 0 53.062-22.94 53.062-52.94V2328.24c0-17.02 8.195-33.15 22.059-43.11L3405.26 20.04C3423.67 6.68 3445.22 0 3466.9 0c21.55 0 43.36 6.809 61.76 20.04l3102.51 2241.77c41.34 29.75 65.67 77.52 65.67 128.31v1317.89c0 30.63 19.66 55.71 46.26 64.92 2.52 1 5.29 1.76 8.19 2.26 4.54 1.14 9.32 1.64 14.24 1.64 4.41 0 8.95-.38 13.61-1.26l60-12.1c5.42-1.01 10.96-1.64 16.38-1.64 44.87 0 83.07 36.43 83.07 83.32V6749.9c0 44.24-35.93 80.16-80.29 80.16" style="fill:#e055a0;fill-opacity:1;fill-rule:nonzero;stroke:none" transform="matrix(.13333 0 0 -.13333 0 1157.347)"></path><path d="M6700.87 6846.83v-.13c-.12 0-.12 0-.12.13zM2401.85 5573.55h-354.94v483h363.13zm42.47 804.65h-456.77s-262.92-15.5-279.06-321.65c-16.13-306.29 0-1660.22 0-1660.22l338.42 16.13v838.18l354.56 16.13v-814.35l354.68 24.57v1627.83s-27.1 272.75-311.83 273.38M3644.99 5590.19h-363.5l6.43 481.48h357.07zm0-790.91h-357.07v467.49h357.07zm352.67 848.89c7.06 75.5 5.8 182.01-.51 343.84-16.13 419.09-401.94 386.19-401.94 386.19h-656.3l4.16-740.11 6.43-1161.1 693.1 16.14h4.29c1.26 0 2.39 0 3.52.12 186.04 2.52 273.26 97.56 313.47 174.82 22.81 43.86 33.27 92.9 33.27 142.18v295.31c0 177.34-112.8 322.29-112.8 322.29 69.32 59.49 101.97 100.58 113.31 220.32M4883.6 5571.03h-354.55v501.52l354.55-16zm32.27 807.8h-386.82s-354.55 0-354.55-290.14v-1611.7l354.55-16.13v789.78h354.55l16.14-822.05 338.42-16.13v1635.77s-16.13 330.6-322.29 330.6M3086.5 1535.52h64.47v64.47h64.47v-96.7l-128.94-128.94v-112.82h193.41v75.08l-120.88-2.56 120.88 147.62v128.6l-40.29 46.13h-107.26l-43.08-43.07v-85.87zM3440.3 1338.31h-55.58v253.59h55.58zm18.78 318.13h-90.49l-48.4-48.4v-290.15l32.26-56.34h120.88l31.88 46.76v299.73zM3558.41 1591.93l3.56-338.46h74.11v402.93h-96.36l-9.99-32.23v-48.35h16.12zM3669.69 1656.4h182.39l-103.52-402.93h-70.64l93.58 338.46h-101.81z" style="fill:#e055a0;fill-opacity:1;fill-rule:nonzero;stroke:none" transform="matrix(.13333 0 0 -.13333 0 1157.347)" data-source="https://football-logos.cc"></path><!-- source: https://football-logos.cc --></svg>