<svg xmlns="http://www.w3.org/2000/svg" viewBox="0.61 0.84 255.12 283.36"><metadata xmlns:fl="https://football-logos.cc/czech-republic/slavia-praha">dl1_6496aff59e17dc403283518724af9067aeca8b7b050550606745306d4dc4ada5</metadata><!-- Source: https://football-logos.cc --><g fill="none" fill-rule="evenodd" data-source="https://football-logos.cc"><path fill="#C5A664" d="m106.196 26.278 13.371-9.673h-16.522L97.911.844l-5.134 15.761H76.263l13.364 9.67-5.11 15.687 13.395-9.691 13.393 9.691z"></path><path fill="#FFFFFE" d="M158.395 191.348h97.336L176.96 134.36l30.098-92.398-78.9 57.093L49.24 41.962l30.104 92.416-78.73 56.97h97.29l30.246 92.852z"></path><path fill="#D82333" d="M103.764 183.273H25.546l63.298-45.803-24.247-74.431 63.56 45.983 63.54-45.98-24.238 74.412 63.336 45.819h-78.261l-24.385 74.857z"></path><path fill="#C5A664" d="m166.711 26.278 13.371-9.673H163.56L158.426.844l-5.134 15.761h-16.514l13.364 9.67-5.11 15.687 13.395-9.691 13.393 9.691z"></path></g><!-- source: https://football-logos.cc --></svg>